<svg width="96" height="96" viewBox="0 0 96 96" fill="none" xmlns="http://www.w3.org/2000/svg">
<g clip-path="url(#clip0_283_24006)">
<path d="M76 12H20C15.6 12 12 15.6 12 20V76C12 80.4 15.6 84 20 84H76C80.4 84 84 80.4 84 76V20C84 15.6 80.4 12 76 12ZM56 58H57V76H39V58H40C42.2 58 44 56.2 44 54V20H52V54C52 56.2 53.8 58 56 58ZM20 20H28V54C28 56.2 29.8 58 32 58H33V76H20V20ZM76 76H63V58H64C66.2 58 68 56.2 68 54V20H76V76Z" fill="black"/>
</g>
<defs>
<clipPath id="clip0_283_24006">
<rect width="96" height="96" fill="white"/>
</clipPath>
</defs>
</svg>
